3D Lower Limb Model_states
version=1
nRows=4
nColumns=243
inDegrees=yes

# SIMM Motion File Header:
name 3D Lower Limb Model_states
datacolumns 243
datarows 4
otherdata 1
range 0.00000000 0.00002200
endheader
time	pelvis_tilt	pelvis_list	pelvis_rotation	pelvis_tx	pelvis_ty	pelvis_tz	hip_flexion_r	hip_adduction_r	hip_rotation_r	knee_angle_r	tp_r3	tp_tx	tp_ty	tp_tz	ankle_angle_r	subtalar_angle_r	mtp_angle_r	hip_flexion_l	hip_adduction_l	hip_rotation_l	knee_angle_l	ltp_r3	ltp_tx	ltp_ty	ltp_tz	ankle_angle_l	subtalar_angle_l	mtp_angle_l	pelvis_tilt_u	pelvis_list_u	pelvis_rotation_u	pelvis_tx_u	pelvis_ty_u	pelvis_tz_u	hip_flexion_r_u	hip_adduction_r_u	hip_rotation_r_u	knee_angle_r_u	tp_r3_u	tp_tx_u	tp_ty_u	tp_tz_u	ankle_angle_r_u	subtalar_angle_r_u	mtp_angle_r_u	hip_flexion_l_u	hip_adduction_l_u	hip_rotation_l_u	knee_angle_l_u	ltp_r3_u	ltp_tx_u	ltp_ty_u	ltp_tz_u	ankle_angle_l_u	subtalar_angle_l_u	mtp_angle_l_u	GMED1.activation	GMED1.fiber_length	GMED2.activation	GMED2.fiber_length	GMED3.activation	GMED3.fiber_length	GMIN1.activation	GMIN1.fiber_length	GMIN2.activation	GMIN2.fiber_length	GMIN3.activation	GMIN3.fiber_length	SEMIMEM.activation	SEMIMEM.fiber_length	SEMITEN.activation	SEMITEN.fiber_length	BIFEMLH.activation	BIFEMLH.fiber_length	HAMSTRINGS.activation	HAMSTRINGS.fiber_length	BIFEMSH.activation	BIFEMSH.fiber_length	SAR.activation	SAR.fiber_length	RF.activation	RF.fiber_length	ADDLONG.activation	ADDLONG.fiber_length	ADDBREV.activation	ADDBREV.fiber_length	AMAG1.activation	AMAG1.fiber_length	AMAG2.activation	AMAG2.fiber_length	AMAG3.activation	AMAG3.fiber_length	TFL.activation	TFL.fiber_length	PECT.activation	PECT.fiber_length	GRA.activation	GRA.fiber_length	GMAX1.activation	GMAX1.fiber_length	GMAX2.activation	GMAX2.fiber_length	GMAX3.activation	GMAX3.fiber_length	ILIACUS.activation	ILIACUS.fiber_length	PSOAS.activation	PSOAS.fiber_length	QUADFEM.activation	QUADFEM.fiber_length	GLEM.activation	GLEM.fiber_length	PERI.activation	PERI.fiber_length	VASMED.activation	VASMED.fiber_length	VASINT.activation	VASINT.fiber_length	VASLAT.activation	VASLAT.fiber_length	MEDGAS.activation	MEDGAS.fiber_length	LATGAS.activation	LATGAS.fiber_length	SOL.activation	SOL.fiber_length	SOLSTIF.activation	SOLSTIF.fiber_length	TIBPOST.activation	TIBPOST.fiber_length	FLEXDIG.activation	FLEXDIG.fiber_length	FLEXHAL.activation	FLEXHAL.fiber_length	TIBANT.activation	TIBANT.fiber_length	PERBREV.activation	PERBREV.fiber_length	PERLONG.activation	PERLONG.fiber_length	PERTERT.activation	PERTERT.fiber_length	EXTDIG.activation	EXTDIG.fiber_length	EXTHAL.activation	EXTHAL.fiber_length	LIGPAT.activation	LIGPAT.fiber_length	TPOST2.activation	TPOST2.fiber_length	LGMED1.activation	LGMED1.fiber_length	LGMED2.activation	LGMED2.fiber_length	LGMED3.activation	LGMED3.fiber_length	LGMIN1.activation	LGMIN1.fiber_length	LGMIN2.activation	LGMIN2.fiber_length	LGMIN3.activation	LGMIN3.fiber_length	LSEMIMEM.activation	LSEMIMEM.fiber_length	LSEMITEN.activation	LSEMITEN.fiber_length	LBIFEMLH.activation	LBIFEMLH.fiber_length	LBIFEMSH.activation	LBIFEMSH.fiber_length	LSAR.activation	LSAR.fiber_length	LRF.activation	LRF.fiber_length	LADDLONG.activation	LADDLONG.fiber_length	LADDBREV.activation	LADDBREV.fiber_length	LAMAG1.activation	LAMAG1.fiber_length	LAMAG2.activation	LAMAG2.fiber_length	LAMAG3.activation	LAMAG3.fiber_length	LTFL.activation	LTFL.fiber_length	LPECT.activation	LPECT.fiber_length	LGRA.activation	LGRA.fiber_length	LGMAX1.activation	LGMAX1.fiber_length	LGMAX2.activation	LGMAX2.fiber_length	LGMAX3.activation	LGMAX3.fiber_length	LILIACUS.activation	LILIACUS.fiber_length	LPSOAS.activation	LPSOAS.fiber_length	LQUADFEM.activation	LQUADFEM.fiber_length	LGLEM.activation	LGLEM.fiber_length	LPERI.activation	LPERI.fiber_length	lVASMED.activation	lVASMED.fiber_length	LVASINT.activation	LVASINT.fiber_length	LVASLAT.activation	LVASLAT.fiber_length	LMEDGAS.activation	LMEDGAS.fiber_length	LLATGAS.activation	LLATGAS.fiber_length	LSOL.activation	LSOL.fiber_length	LSOLSTIF.activation	LSOLSTIF.fiber_length	LTIBPOST.activation	LTIBPOST.fiber_length	LFLEXDIG.activation	LFLEXDIG.fiber_length	LFLEXHAL.activation	LFLEXHAL.fiber_length	LTIBANT.activation	LTIBANT.fiber_length	LPERBREV.activation	LPERBREV.fiber_length	LPERLONG.activation	LPERLONG.fiber_length	LPERTERT.activation	LPERTERT.fiber_length	LEXTDIG.activation	LEXTDIG.fiber_length	LEXTHAL.activation	LEXTHAL.fiber_length	LLIGPAT.activation	LLIGPAT.fiber_length	LTPOST2.activation	LTPOST2.fiber_length
      0.00000000	      0.00000000	      0.00000000	      0.00000000	      0.00000000	      0.00000000	      0.00000000	      0.00000000	     -0.00000014	      0.00000000	     -0.00178633	     -0.06479374	      0.04959981	     -0.02268902	      0.00240000	      0.00000000	      0.00000000	      0.00000000	      0.00000000	     -0.00000014	      0.00000000	     -0.00178633	     -0.06479374	      0.04959981	     -0.02268902	     -0.00240000	      0.00000000	      0.00000000	      0.00000000	      0.00000000	      0.00000000	      0.00000000	      0.00000000	      0.00000000	      0.00000000	      0.00000000	      0.00000000	      0.00000000	      0.00000000	      0.00000000	      0.00000000	      0.00000000	      0.00000000	      0.00000000	      0.00000000	      0.00000000	      0.00000000	      0.00000000	      0.00000000	      0.00000000	      0.00000000	      0.00000000	      0.00000000	      0.00000000	      0.00000000	      0.00000000	      0.00000000	      0.05000000	      0.10000000	      0.05000000	      0.10000000	      0.05000000	      0.10000000	      0.05000000	      0.10000000	      0.05000000	      0.10000000	      0.05000000	      0.10000000	      0.05000000	      0.10000000	      0.05000000	      0.10000000	      0.05000000	      0.10000000	      0.05000000	      0.10000000	      0.05000000	      0.10000000	      0.05000000	      0.25713390	      0.05000000	      0.10000000	      0.05000000	      0.10000000	      0.05000000	      0.10000000	      0.05000000	      0.10000000	      0.05000000	      0.10000000	      0.05000000	      0.10000000	      0.05000000	      0.10000000	      0.05000000	      0.10000000	      0.05000000	      0.15632320	      0.05000000	      0.10000000	      0.05000000	      0.10000000	      0.05000000	      0.10000000	      0.05000000	      0.10000000	      0.05000000	      0.10000000	      0.05000000	      0.10000000	      0.05000000	      0.10000000	      0.05000000	      0.10000000	      0.05000000	      0.10000000	      0.05000000	      0.10000000	      0.05000000	      0.10000000	      0.05000000	      0.10000000	      0.05000000	      0.10000000	      0.05000000	      0.10000000	      0.05000000	      0.10000000	      0.05000000	      0.10000000	      0.05000000	      0.10000000	      0.05000000	      0.10000000	      0.05000000	      0.10000000	      0.05000000	      0.10000000	      0.05000000	      0.10000000	      0.05000000	      0.10000000	      0.05000000	      0.10000000	      0.05000000	      0.10000000	      0.05000000	      0.10000000	      0.05000000	      0.10000000	      0.05000000	      0.10000000	      0.05000000	      0.10000000	      0.05000000	      0.10000000	      0.05000000	      0.10000000	      0.05000000	      0.10000000	      0.05000000	      0.10000000	      0.05000000	      0.10000000	      0.05000000	      0.10000000	      0.05000000	      0.10000000	      0.05000000	      0.10000000	      0.05000000	      0.25713390	      0.05000000	      0.10000000	      0.05000000	      0.10000000	      0.05000000	      0.10000000	      0.05000000	      0.10000000	      0.05000000	      0.10000000	      0.05000000	      0.10000000	      0.05000000	      0.10000000	      0.05000000	      0.10000000	      0.05000000	      0.15632320	      0.05000000	      0.10000000	      0.05000000	      0.10000000	      0.05000000	      0.10000000	      0.05000000	      0.10000000	      0.05000000	      0.10000000	      0.05000000	      0.10000000	      0.05000000	      0.10000000	      0.05000000	      0.10000000	      0.05000000	      0.10000000	      0.05000000	      0.10000000	      0.05000000	      0.10000000	      0.05000000	      0.10000000	      0.05000000	      0.10000000	      0.05000000	      0.10000000	      0.05000000	      0.10000000	      0.05000000	      0.10000000	      0.05000000	      0.10000000	      0.05000000	      0.10000000	      0.05000000	      0.10000000	      0.05000000	      0.10000000	      0.05000000	      0.10000000	      0.05000000	      0.10000000	      0.05000000	      0.10000000	      0.05000000	      0.10000000	      0.05000000	      0.10000000	      0.05000000	      0.10000000
      0.00000565	     -0.00002984	     -0.00000000	      0.00000000	      0.00000001	     -0.00000004	     -0.00000000	      0.00003739	      0.00000005	     -0.00000116	     -0.00179851	     -0.06477879	      0.04959981	     -0.02268902	      0.00240000	      0.00000647	      0.00000180	      0.00000653	      0.00003739	      0.00000005	     -0.00000116	     -0.00179851	     -0.06477879	      0.04959981	     -0.02268902	     -0.00240000	      0.00000647	      0.00000180	      0.00000653	     -9.95698555	     -0.00000000	      0.00000000	      0.00181113	     -0.01226582	     -0.00000000	     12.49013373	      0.06275002	     -0.41072631	     -4.09904115	      5.03118591	     -0.00043106	      0.00015647	     -0.00000000	      2.19410625	      0.64949979	      2.21688187	     12.49013373	      0.06275002	     -0.41072631	     -4.09904115	      5.03118591	     -0.00043106	      0.00015647	      0.00000000	      2.19410625	      0.64949979	      2.21688187	      0.04999676	      0.09995524	      0.04999675	      0.09999766	      0.04999675	      0.09997895	      0.04999675	      0.09998483	      0.04999675	      0.09996067	      0.04999675	      0.09992151	      0.04999675	      0.09999631	      0.04999675	      0.10128245	      0.04999675	      0.09999870	      0.04999675	      0.09999870	      0.04999675	      0.10299928	      0.04999675	      0.31282890	      0.04999675	      0.09999756	      0.04999675	      0.10011057	      0.04999675	      0.10150007	      0.04999675	      0.09999802	      0.04999675	      0.09999863	      0.04999675	      0.09999857	      0.04999675	      0.10001703	      0.04999675	      0.10245344	      0.04999675	      0.16245731	      0.04999675	      0.09999853	      0.04999675	      0.09999854	      0.04999675	      0.09999853	      0.04999678	      0.10027844	      0.04999675	      0.10033841	      0.04999675	      0.09995632	      0.04999675	      0.09989105	      0.04999675	      0.09989540	      0.04999675	      0.09999822	      0.04999675	      0.09999802	      0.04999675	      0.09999756	      0.04999675	      0.09993674	      0.04999675	      0.09997778	      0.04999675	      0.09990410	      0.04999675	      0.09990410	      0.04999675	      0.09990628	      0.04999675	      0.09991281	      0.04999675	      0.09993239	      0.04999692	      0.09999878	      0.04999675	      0.09994762	      0.04999675	      0.09994544	      0.04999675	      0.09999584	      0.04999675	      0.09999876	      0.04999675	      0.10001010	      0.04999675	      0.09994762	      0.04999675	      0.09990628	      0.04999675	      0.09995524	      0.04999675	      0.09999766	      0.04999675	      0.09997895	      0.04999675	      0.09998483	      0.04999675	      0.09996067	      0.04999675	      0.09992151	      0.04999675	      0.09999631	      0.04999675	      0.10128245	      0.04999675	      0.09999870	      0.04999675	      0.10299928	      0.04999712	      0.31282890	      0.04999675	      0.09999756	      0.04999675	      0.10011057	      0.04999675	      0.10150007	      0.04999675	      0.09999802	      0.04999675	      0.09999863	      0.04999675	      0.09999857	      0.04999675	      0.10001703	      0.04999675	      0.10245344	      0.04999675	      0.16245731	      0.04999675	      0.09999853	      0.04999675	      0.09999854	      0.04999675	      0.09999853	      0.04999690	      0.10027844	      0.04999675	      0.10033841	      0.04999722	      0.09995632	      0.04999683	      0.09989105	      0.04999679	      0.09989540	      0.04999675	      0.09999822	      0.04999675	      0.09999802	      0.04999675	      0.09999756	      0.04999675	      0.09993674	      0.04999675	      0.09997778	      0.04999675	      0.09990410	      0.04999675	      0.09990410	      0.04999675	      0.09990628	      0.04999675	      0.09991281	      0.04999675	      0.09993239	      0.04999687	      0.09999878	      0.04999675	      0.09994762	      0.04999675	      0.09994544	      0.04999675	      0.09999584	      0.04999675	      0.09999876	      0.04999675	      0.10001010	      0.04999675	      0.09994762	      0.04999675	      0.09990628
      0.00001129	     -0.00010698	     -0.00000000	      0.00000000	      0.00000002	     -0.00000013	     -0.00000000	      0.00013432	      0.00000053	     -0.00000459	     -0.00183069	     -0.06473930	      0.04959981	     -0.02268902	      0.00240000	      0.00002390	      0.00000731	      0.00002418	      0.00013432	      0.00000053	     -0.00000459	     -0.00183069	     -0.06473930	      0.04959981	     -0.02268902	     -0.00240000	      0.00002390	      0.00000731	      0.00002418	    -17.09903912	     -0.00000000	      0.00000000	      0.00300565	     -0.02107873	     -0.00000000	     21.51492257	      0.10838362	     -0.78933632	     -7.20152884	      8.83918071	     -0.00075732	      0.00027490	     -0.00000000	      3.93336071	      1.26733079	      3.99640161	     21.51492257	      0.10838362	     -0.78933632	     -7.20152884	      8.83918071	     -0.00075732	      0.00027490	      0.00000000	      3.93336071	      1.26733079	      3.99640161	      0.04999352	      0.09991054	      0.04999351	      0.09999531	      0.04999351	      0.09995793	      0.04999351	      0.09996968	      0.04999351	      0.09992141	      0.04999351	      0.09984315	      0.04999351	      0.09999262	      0.04999351	      0.10254827	      0.04999351	      0.09999739	      0.04999351	      0.09999739	      0.04999351	      0.10579651	      0.04999351	      0.35710504	      0.04999351	      0.09999512	      0.04999351	      0.10021891	      0.04999351	      0.10285011	      0.04999351	      0.09999604	      0.04999351	      0.09999725	      0.04999351	      0.09999714	      0.04999351	      0.10003400	      0.04999351	      0.10266577	      0.04999351	      0.16834583	      0.04999351	      0.09999705	      0.04999351	      0.09999708	      0.04999351	      0.09999706	      0.04999357	      0.10055193	      0.04999351	      0.10067244	      0.04999351	      0.09991272	      0.04999351	      0.09978227	      0.04999351	      0.09979097	      0.04999351	      0.09999644	      0.04999351	      0.09999604	      0.04999351	      0.09999512	      0.04999351	      0.09987358	      0.04999351	      0.09995558	      0.04999351	      0.09980836	      0.04999351	      0.09980836	      0.04999351	      0.09981271	      0.04999351	      0.09982575	      0.04999351	      0.09986489	      0.04999386	      0.09999755	      0.04999351	      0.09989532	      0.04999351	      0.09989098	      0.04999351	      0.09999167	      0.04999351	      0.09999752	      0.04999351	      0.10002017	      0.04999351	      0.09989532	      0.04999351	      0.09981271	      0.04999351	      0.09991054	      0.04999351	      0.09999531	      0.04999351	      0.09995793	      0.04999351	      0.09996968	      0.04999351	      0.09992141	      0.04999351	      0.09984315	      0.04999351	      0.09999262	      0.04999351	      0.10254827	      0.04999351	      0.09999739	      0.04999351	      0.10579651	      0.04999431	      0.35710504	      0.04999351	      0.09999512	      0.04999351	      0.10021891	      0.04999351	      0.10285011	      0.04999351	      0.09999604	      0.04999351	      0.09999725	      0.04999351	      0.09999714	      0.04999351	      0.10003400	      0.04999351	      0.10266577	      0.04999351	      0.16834583	      0.04999351	      0.09999705	      0.04999351	      0.09999708	      0.04999351	      0.09999706	      0.04999383	      0.10055193	      0.04999351	      0.10067244	      0.04999454	      0.09991272	      0.04999368	      0.09978227	      0.04999358	      0.09979097	      0.04999351	      0.09999644	      0.04999351	      0.09999604	      0.04999351	      0.09999512	      0.04999351	      0.09987358	      0.04999351	      0.09995558	      0.04999351	      0.09980836	      0.04999351	      0.09980836	      0.04999351	      0.09981271	      0.04999351	      0.09982575	      0.04999351	      0.09986489	      0.04999375	      0.09999755	      0.04999351	      0.09989532	      0.04999351	      0.09989098	      0.04999351	      0.09999167	      0.04999351	      0.09999752	      0.04999351	      0.10002017	      0.04999351	      0.09989532	      0.04999351	      0.09981271
      0.00002200	     -0.00034666	     -0.00000000	      0.00000000	      0.00000006	     -0.00000043	     -0.00000000	      0.00043669	      0.00000219	     -0.00001588	     -0.00193356	     -0.06461303	      0.04959980	     -0.02268902	      0.00240000	      0.00008080	      0.00002485	      0.00008270	      0.00043669	      0.00000219	     -0.00001588	     -0.00193356	     -0.06461303	      0.04959980	     -0.02268902	     -0.00240000	      0.00008080	      0.00002485	      0.00008270	    -27.03101610	     -0.00000000	      0.00000000	      0.00449424	     -0.03336376	     -0.00000000	     34.17355110	      0.20317621	     -1.27409614	    -11.78331171	     14.46279351	     -0.00123915	      0.00044979	     -0.00000000	      6.57853764	      1.90536616	      6.84154188	     34.17355111	      0.20317620	     -1.27409614	    -11.78331172	     14.46279351	     -0.00123915	      0.00044979	      0.00000000	      6.57853764	      1.90536617	      6.84154188	      0.04998737	      0.09982599	      0.04998735	      0.09999087	      0.04998735	      0.09991815	      0.04998735	      0.09994100	      0.04998735	      0.09984714	      0.04998735	      0.09969490	      0.04998735	      0.09998563	      0.04998735	      0.10490376	      0.04998735	      0.09999492	      0.04998735	      0.09999492	      0.04998735	      0.11064027	      0.04998735	      0.41766873	      0.04998735	      0.09999049	      0.04998735	      0.10041839	      0.04998735	      0.10505037	      0.04998735	      0.09999229	      0.04998735	      0.09999465	      0.04998735	      0.09999443	      0.04998735	      0.10006606	      0.04998735	      0.10269217	      0.04998735	      0.17887277	      0.04998735	      0.09999426	      0.04998735	      0.09999432	      0.04998735	      0.09999426	      0.04998747	      0.10105728	      0.04998735	      0.10129402	      0.04998735	      0.09983022	      0.04998735	      0.09957649	      0.04998735	      0.09959341	      0.04998735	      0.09999306	      0.04998735	      0.09999229	      0.04998735	      0.09999049	      0.04998735	      0.09975410	      0.04998735	      0.09991360	      0.04998735	      0.09962724	      0.04998735	      0.09962724	      0.04998735	      0.09963570	      0.04998735	      0.09966107	      0.04998735	      0.09973719	      0.04998806	      0.09999524	      0.04998735	      0.09979639	      0.04998735	      0.09978793	      0.04998735	      0.09998379	      0.04998735	      0.09999517	      0.04998735	      0.10003915	      0.04998735	      0.09979639	      0.04998735	      0.09963570	      0.04998735	      0.09982599	      0.04998735	      0.09999087	      0.04998735	      0.09991815	      0.04998735	      0.09994100	      0.04998735	      0.09984714	      0.04998735	      0.09969490	      0.04998735	      0.09998563	      0.04998735	      0.10490376	      0.04998735	      0.09999492	      0.04998735	      0.11064027	      0.04998899	      0.41766873	      0.04998735	      0.09999049	      0.04998735	      0.10041839	      0.04998735	      0.10505037	      0.04998735	      0.09999229	      0.04998735	      0.09999465	      0.04998735	      0.09999443	      0.04998735	      0.10006606	      0.04998735	      0.10269217	      0.04998735	      0.17887277	      0.04998735	      0.09999426	      0.04998735	      0.09999432	      0.04998735	      0.09999426	      0.04998801	      0.10105728	      0.04998735	      0.10129402	      0.04998945	      0.09983022	      0.04998771	      0.09957649	      0.04998750	      0.09959341	      0.04998735	      0.09999306	      0.04998735	      0.09999229	      0.04998735	      0.09999049	      0.04998735	      0.09975410	      0.04998735	      0.09991360	      0.04998735	      0.09962724	      0.04998735	      0.09962724	      0.04998735	      0.09963570	      0.04998735	      0.09966107	      0.04998735	      0.09973719	      0.04998783	      0.09999524	      0.04998735	      0.09979639	      0.04998735	      0.09978793	      0.04998735	      0.09998379	      0.04998735	      0.09999517	      0.04998735	      0.10003915	      0.04998735	      0.09979639	      0.04998735	      0.09963570
